# xmcd
#
# Track frame offsets:
#	150
#	17382
#	29637
#	42375
#	54225
#	65775
#	78322
#	90330
#	99460
#	113310
#	126735
#	141370
#	151822
#	167110
#	180645
#	190985
#	207665
#	220525
#
# Disc length: 3178 seconds
#
# Revision: 3
# Processed by: cddbd v1.4PL0 Copyright (c) Steve Scherf et al.
# Submitted via: MusicWizard 6.0.1
#
DISCID=f60c6812
DTITLE=John Lee Hooker - Blues For Life [CD 2/2)
DYEAR=1900
DGENRE=Blues
TTITLE0=Blues Before Sunrise
TTITLE1=Crawlin Kingsnake
TTITLE2=I´m So Excited
TTITLE3=Little Wheel
TTITLE4=Let´s Make It
TTITLE5=Trouble Blues
TTITLE6=Frisco Blues
TTITLE7=Onions
TTITLE8=Louise
TTITLE9=I´m Going Upstairs
TTITLE10=Sugar Mama
TTITLE11=Maudie
TTITLE12=Tupelo
TTITLE13=Ground Hog Blues
TTITLE14=Old Time Shimmy
TTITLE15=Process
TTITLE16=Baby Lee
TTITLE17=Wednesday Evening Blues
EXTD=
EXTT0=
EXTT1=
EXTT2=
EXTT3=
EXTT4=
EXTT5=
EXTT6=
EXTT7=
EXTT8=
EXTT9=
EXTT10=
EXTT11=
EXTT12=
EXTT13=
EXTT14=
EXTT15=
EXTT16=
EXTT17=
PLAYORDER=
